<svg width="512" height="512" viewBox="0 0 497 497" xmlns="http://www.w3.org/2000/svg" xmlns:xlink="http://www.w3.org/1999/xlink" id="Capa_1" overflow="hidden"><g><path d="M426.601 211.68C426.361 222.65 421.821 232.57 414.591 239.8 407.171 247.22 396.911 251.81 385.591 251.81L371.281 251.81C364.549 251.81 359.091 257.268 359.091 264L359.091 347.12C359.091 352.764 354.515 357.34 348.871 357.34L80.611 357.34C74.967 357.34 70.391 352.764 70.391 347.12L70.391 264C70.391 257.268 75.849 251.81 82.581 251.81L98.111 251.81C109.441 251.81 119.691 247.22 127.111 239.8 134.341 232.57 138.881 222.65 139.121 211.68 139.611 188.63 120.271 169.77 97.221 169.77L82.581 169.77C75.849 169.77 70.391 164.312 70.391 157.58L70.391 78.87C70.391 73.226 74.967 68.65 80.611 68.65L161.541 68.65C168.273 68.65 173.731 63.192 173.731 56.46L173.731 41.84C173.731 23.24 185.871 7.07 202.801 1.8 206.291 0.72 209.991 0.1 213.821 0.01 225.511-0.25 236.121 4.39 243.741 12.01 251.171 19.44 255.761 29.69 255.761 41.02L255.761 56.46C255.761 63.192 261.219 68.65 267.951 68.65L348.871 68.65C354.515 68.65 359.091 73.226 359.091 78.87L359.091 157.58C359.091 164.312 364.549 169.77 371.281 169.77L384.701 169.77C407.751 169.77 427.091 188.63 426.601 211.68Z" fill="#46CC8D"/><path d="M267.941 68.65 243.941 68.65C237.211 68.65 231.761 63.19 231.761 56.46L231.761 41.02C231.761 29.69 227.171 19.44 219.741 12.01 215.071 7.34 209.281 3.79 202.801 1.8 206.291 0.72 209.991 0.1 213.821 0.01 225.511-0.25 236.121 4.39 243.741 12.01 251.171 19.44 255.761 29.69 255.761 41.02L255.761 56.46C255.761 63.19 261.211 68.65 267.941 68.65Z" fill="#00C27A"/><path d="M426.601 211.68C426.361 222.65 421.821 232.57 414.591 239.8 407.171 247.22 396.911 251.81 385.591 251.81L371.281 251.81C364.549 251.81 359.091 257.268 359.091 264L359.091 347.12C359.091 352.764 354.515 357.34 348.871 357.34L329.251 357.34C332.999 353.432 335.091 348.226 335.091 342.811L335.091 264C335.091 257.268 340.549 251.81 347.281 251.81L361.591 251.81C372.911 251.81 383.171 247.22 390.591 239.8 397.821 232.57 402.361 222.65 402.601 211.68 403.091 188.63 383.751 169.77 360.701 169.77L347.281 169.77C340.549 169.77 335.091 164.312 335.091 157.58L335.091 84.587C335.091 78.105 331.749 72.081 326.251 68.65L348.871 68.65C354.515 68.65 359.091 73.226 359.091 78.87L359.091 157.58C359.091 164.312 364.549 169.77 371.281 169.77L384.701 169.77C407.751 169.77 427.091 188.63 426.601 211.68Z" fill="#00C27A"/><path d="M244.699 236.546 244.699 357.34 210.902 357.34 210.902 236.546C210.902 229.439 215.294 223.355 221.515 220.865 223.457 220.075 225.576 219.648 227.8 219.648 237.133 219.648 244.699 227.215 244.699 236.546Z" fill="#FFCEBF"/><path d="M244.699 236.976 244.699 357.34C237.756 357.34 232.128 351.712 232.128 344.769L232.128 236.546C232.128 229.439 227.736 223.355 221.515 220.865 223.458 220.075 225.58 219.648 227.805 219.648 237.1 219.65 244.699 227.682 244.699 236.976Z" fill="#FFB09E"/><path d="M210.903 250.729 210.903 357.34 177.098 357.34 177.098 250.729C177.098 243.678 181.417 237.642 187.55 235.104 189.532 234.282 191.716 233.831 193.997 233.831 203.336 233.83 210.903 241.397 210.903 250.729Z" fill="#FFCEBF"/><path d="M210.903 251.196 210.903 357.34 210.581 357.34C203.638 357.34 198.01 351.712 198.01 344.769L198.01 250.728C198.01 243.677 193.691 237.633 187.55 235.103 189.548 234.275 191.75 233.823 194.049 233.83 203.441 233.859 210.903 241.803 210.903 251.196Z" fill="#FFB09E"/><path d="M278.504 250.729 278.504 357.34 244.699 357.34 244.699 250.729C244.699 243.678 249.018 237.642 255.151 235.104 257.133 234.282 259.317 233.831 261.598 233.831 270.937 233.83 278.504 241.397 278.504 250.729Z" fill="#FFCEBF"/><path d="M278.505 251.196 278.505 357.34 278.183 357.34C271.24 357.34 265.612 351.712 265.612 344.769L265.612 250.728C265.612 243.677 261.293 237.633 255.152 235.103 257.15 234.275 259.352 233.823 261.651 233.83 271.043 233.859 278.505 241.803 278.505 251.196Z" fill="#FFB09E"/><path d="M177.098 269.827 177.098 357.34 143.301 357.34 143.301 269.827C143.301 262.857 147.524 256.869 153.551 254.291 155.59 253.413 157.838 252.929 160.199 252.929 169.531 252.929 177.098 260.495 177.098 269.827Z" fill="#FFCEBF"/><path d="M177.098 270.242 177.098 357.34 176.373 357.34C169.43 357.34 163.802 351.712 163.802 344.769L163.802 269.827C163.802 262.857 159.579 256.869 153.552 254.291 155.807 253.319 158.319 252.831 160.956 252.946 170.058 253.341 177.098 261.131 177.098 270.242Z" fill="#FFB09E"/><path d="M278.501 357.34 278.501 483.25C278.501 490.844 272.345 497 264.751 497L164.752 497C157.158 497 151.002 490.844 151.002 483.25L151.002 462.784C151.002 454.647 149.702 446.562 147.152 438.835 144.602 431.108 143.302 423.023 143.302 414.886L143.302 357.34Z" fill="#FFCEBF"/><path d="M300.942 429.533 278.501 453 278.501 326.73C278.501 317.77 285.771 310.5 294.741 310.5 299.011 310.5 302.921 312.16 305.831 314.88 308.741 317.6 310.651 321.39 310.931 325.65L315.23 390.176C316.199 404.719 311.014 418.999 300.942 429.533Z" fill="#FFCEBF"/><path d="M300.941 429.53 278.501 453 278.501 450.575C278.501 442.735 281.524 435.197 286.941 429.53 297.011 419 302.201 404.72 301.231 390.18L296.931 325.65C296.651 321.39 294.741 317.6 291.831 314.88 290.631 313.75 289.241 312.8 287.731 312.09 289.851 311.07 292.231 310.5 294.741 310.5 299.011 310.5 302.921 312.16 305.831 314.88 308.741 317.6 310.651 321.39 310.931 325.65L315.231 390.18C316.201 404.72 311.011 419 300.941 429.53Z" fill="#FFB09E"/></g></svg>