<svg width="512" height="512" viewBox="0 0 512 512" xmlns="http://www.w3.org/2000/svg" xmlns:xlink="http://www.w3.org/1999/xlink" id="Capa_1" overflow="hidden"><g id="_x31_0_video_camera"><path d="M490.962 162.255 354.554 215.5 354.554 296.5 490.962 349.745C501.058 353.736 512 346.295 512 335.439 512 333.258 512 178.741 512 176.56 512 165.705 501.058 158.264 490.962 162.255Z" fill="#596C76"/><path d="M490.962 321.399 354.554 268.154 354.554 296.5 490.962 349.745C501.058 353.736 512 346.295 512 335.439 512 334.859 512 323.497 512 307.093 512 317.949 501.058 325.389 490.962 321.399Z" fill="#465A61"/><path d="M352.138 420.082C369.129 420.082 382.903 406.308 382.903 389.317L382.903 122.683C382.903 105.692 369.129 91.918 352.138 91.918L30.765 91.918C13.774 91.918-1.42109e-14 105.692-1.42109e-14 122.683-1.42109e-14 130.205-1.42109e-14 395.792-1.42109e-14 389.317-1.42109e-14 406.308 13.774 420.082 30.765 420.082 38.815 420.082 360.419 420.082 352.138 420.082Z" fill="#8D9CA8"/><circle cx="191.351" cy="256" r="104.689" fill="#D8ECFE"/><path d="M145.85 209.579 145.85 302.421C145.85 312.578 156.763 318.997 165.64 314.063L249.151 267.642C258.282 262.567 258.282 249.434 249.151 244.359L165.64 197.938C156.763 193.002 145.85 199.422 145.85 209.579Z" fill="#FE646F"/><path d="M352.138 91.918 317.096 91.918C334.087 91.918 347.861 105.692 347.861 122.683L347.861 389.317C347.861 406.308 334.087 420.082 317.096 420.082L317.245 420.082 352.138 420.082C369.129 420.082 382.903 406.308 382.903 389.317L382.903 122.683C382.903 105.692 369.129 91.918 352.138 91.918Z" fill="#7A8C98"/></g></svg>